<mxfile host="65bd71144e" modified="2020-12-29T12:04:33.186Z" agent="5.0 (Macintosh; Intel Mac OS X 10_15_7) AppleWebKit/537.36 (KHTML, like Gecko) Code/1.52.1 Chrome/83.0.4103.122 Electron/9.3.5 Safari/537.36" etag="Bgp2QB3EOjqLC21FIJbM" version="13.10.0" type="embed">
    <diagram id="STkELRAIYUjnS2bOVNo3" name="Page-1">
        <mxGraphModel dx="126" dy="1444" grid="1" gridSize="10" guides="1" tooltips="1" connect="1" arrows="1" fold="1" page="1" pageScale="1" pageWidth="850" pageHeight="1100" math="0" shadow="0">
            <root>
                <mxCell id="0"/>
                <mxCell id="1" parent="0"/>
                <mxCell id="3" value="無限ループ" style="strokeWidth=2;html=1;shape=mxgraph.flowchart.loop_limit;whiteSpace=wrap;fillColor=none;strokeColor=#3399FF;fontColor=#007FFF;" parent="1" vertex="1">
                    <mxGeometry x="375" y="30" width="100" height="40" as="geometry"/>
                </mxCell>
                <mxCell id="44" style="edgeStyle=orthogonalEdgeStyle;rounded=0;orthogonalLoop=1;jettySize=auto;html=1;fillColor=none;strokeColor=#3399FF;fontColor=#007FFF;" parent="1" source="4" target="43" edge="1">
                    <mxGeometry relative="1" as="geometry"/>
                </mxCell>
                <mxCell id="4" value="無限ループ" style="strokeWidth=2;html=1;shape=mxgraph.flowchart.loop_limit;whiteSpace=wrap;rotation=0;flipH=0;flipV=1;fillColor=none;strokeColor=#3399FF;fontColor=#007FFF;" parent="1" vertex="1">
                    <mxGeometry x="375" y="790" width="100" height="40" as="geometry"/>
                </mxCell>
                <mxCell id="6" value="学生証を読み取る" style="rounded=0;whiteSpace=wrap;html=1;fillColor=none;strokeColor=#3399FF;fontColor=#007FFF;" parent="1" vertex="1">
                    <mxGeometry x="365" y="100" width="120" height="30" as="geometry"/>
                </mxCell>
                <mxCell id="7" value="読み取りモードを交通系ICに変更" style="rounded=0;whiteSpace=wrap;html=1;fillColor=none;strokeColor=#3399FF;fontColor=#007FFF;" parent="1" vertex="1">
                    <mxGeometry x="375" y="160" width="100" height="50" as="geometry"/>
                </mxCell>
                <mxCell id="8" value="学生証が読み取れたら" style="rhombus;whiteSpace=wrap;html=1;fillColor=none;strokeColor=#3399FF;fontColor=#007FFF;" parent="1" vertex="1">
                    <mxGeometry x="355" y="240" width="140" height="80" as="geometry"/>
                </mxCell>
                <mxCell id="38" style="edgeStyle=orthogonalEdgeStyle;rounded=0;orthogonalLoop=1;jettySize=auto;html=1;fillColor=none;strokeColor=#3399FF;fontColor=#007FFF;" parent="1" source="9" target="11" edge="1">
                    <mxGeometry relative="1" as="geometry"/>
                </mxCell>
                <mxCell id="9" value="学生証から名前と学生証のIDを取得" style="rounded=0;whiteSpace=wrap;html=1;fillColor=none;strokeColor=#3399FF;fontColor=#007FFF;" parent="1" vertex="1">
                    <mxGeometry x="505" y="370" width="140" height="50" as="geometry"/>
                </mxCell>
                <mxCell id="39" style="edgeStyle=orthogonalEdgeStyle;rounded=0;orthogonalLoop=1;jettySize=auto;html=1;entryX=0.5;entryY=0;entryDx=0;entryDy=0;fillColor=none;strokeColor=#3399FF;fontColor=#007FFF;" parent="1" source="10" target="50" edge="1">
                    <mxGeometry relative="1" as="geometry"/>
                </mxCell>
                <mxCell id="10" value="交通系ICを読み取る" style="rounded=0;whiteSpace=wrap;html=1;fillColor=none;strokeColor=#3399FF;fontColor=#007FFF;" parent="1" vertex="1">
                    <mxGeometry x="225" y="305" width="120" height="35" as="geometry"/>
                </mxCell>
                <mxCell id="11" value="flagが1であれば" style="rhombus;whiteSpace=wrap;html=1;fillColor=none;strokeColor=#3399FF;fontColor=#007FFF;" parent="1" vertex="1">
                    <mxGeometry x="520" y="450" width="110" height="80" as="geometry"/>
                </mxCell>
                <mxCell id="13" value="process" style="shape=process;whiteSpace=wrap;html=1;backgroundOutline=1;size=0.16666666666666666;fillColor=none;strokeColor=#3399FF;fontColor=#007FFF;" parent="1" vertex="1">
                    <mxGeometry x="600" y="650" width="120" height="30" as="geometry"/>
                </mxCell>
                <mxCell id="14" value="regist_univ" style="shape=process;whiteSpace=wrap;html=1;backgroundOutline=1;size=0.16666666666666666;fillColor=none;strokeColor=#3399FF;fontColor=#007FFF;" parent="1" vertex="1">
                    <mxGeometry x="450" y="620" width="120" height="30" as="geometry"/>
                </mxCell>
                <mxCell id="15" value="" style="endArrow=classic;html=1;exitX=0.5;exitY=1;exitDx=0;exitDy=0;entryX=0.5;entryY=0;entryDx=0;entryDy=0;fillColor=none;strokeColor=#3399FF;fontColor=#007FFF;" parent="1" source="11" target="17" edge="1">
                    <mxGeometry width="50" height="50" relative="1" as="geometry">
                        <mxPoint x="610" y="710" as="sourcePoint"/>
                        <mxPoint x="660" y="570" as="targetPoint"/>
                        <Array as="points">
                            <mxPoint x="575" y="550"/>
                            <mxPoint x="660" y="550"/>
                        </Array>
                    </mxGeometry>
                </mxCell>
                <mxCell id="16" value="" style="endArrow=classic;html=1;exitX=0;exitY=0.5;exitDx=0;exitDy=0;entryX=0.5;entryY=0;entryDx=0;entryDy=0;fillColor=none;strokeColor=#3399FF;fontColor=#007FFF;" parent="1" source="11" target="14" edge="1">
                    <mxGeometry width="50" height="50" relative="1" as="geometry">
                        <mxPoint x="470" y="560" as="sourcePoint"/>
                        <mxPoint x="520" y="510" as="targetPoint"/>
                        <Array as="points">
                            <mxPoint x="510" y="490"/>
                        </Array>
                    </mxGeometry>
                </mxCell>
                <mxCell id="17" value="学生証のIDからデータベースでのIDを取得" style="rounded=0;whiteSpace=wrap;html=1;fillColor=none;strokeColor=#3399FF;fontColor=#007FFF;" parent="1" vertex="1">
                    <mxGeometry x="595" y="580" width="130" height="50" as="geometry"/>
                </mxCell>
                <mxCell id="18" value="" style="endArrow=classic;html=1;exitX=0.5;exitY=1;exitDx=0;exitDy=0;fillColor=none;strokeColor=#3399FF;fontColor=#007FFF;" parent="1" source="17" target="13" edge="1">
                    <mxGeometry width="50" height="50" relative="1" as="geometry">
                        <mxPoint x="640" y="640" as="sourcePoint"/>
                        <mxPoint x="690" y="720" as="targetPoint"/>
                    </mxGeometry>
                </mxCell>
                <mxCell id="19" value="flagが1であれば" style="rhombus;whiteSpace=wrap;html=1;fillColor=none;strokeColor=#3399FF;fontColor=#007FFF;" parent="1" vertex="1">
                    <mxGeometry x="230" y="470" width="110" height="80" as="geometry"/>
                </mxCell>
                <mxCell id="20" value="process" style="shape=process;whiteSpace=wrap;html=1;backgroundOutline=1;size=0.16666666666666666;fillColor=none;strokeColor=#3399FF;fontColor=#007FFF;" parent="1" vertex="1">
                    <mxGeometry x="310" y="670" width="120" height="30" as="geometry"/>
                </mxCell>
                <mxCell id="21" value="regist_transportation" style="shape=process;whiteSpace=wrap;html=1;backgroundOutline=1;size=0.16666666666666666;fillColor=none;strokeColor=#3399FF;fontColor=#007FFF;" parent="1" vertex="1">
                    <mxGeometry x="90" y="640" width="190" height="30" as="geometry"/>
                </mxCell>
                <mxCell id="22" value="" style="endArrow=classic;html=1;exitX=0.5;exitY=1;exitDx=0;exitDy=0;entryX=0.5;entryY=0;entryDx=0;entryDy=0;fillColor=none;strokeColor=#3399FF;fontColor=#007FFF;" parent="1" source="19" target="24" edge="1">
                    <mxGeometry width="50" height="50" relative="1" as="geometry">
                        <mxPoint x="320" y="730" as="sourcePoint"/>
                        <mxPoint x="370" y="590" as="targetPoint"/>
                        <Array as="points">
                            <mxPoint x="285" y="570"/>
                            <mxPoint x="370" y="570"/>
                        </Array>
                    </mxGeometry>
                </mxCell>
                <mxCell id="23" value="" style="endArrow=classic;html=1;exitX=0;exitY=0.5;exitDx=0;exitDy=0;entryX=0.5;entryY=0;entryDx=0;entryDy=0;fillColor=none;strokeColor=#3399FF;fontColor=#007FFF;" parent="1" source="19" target="21" edge="1">
                    <mxGeometry width="50" height="50" relative="1" as="geometry">
                        <mxPoint x="180" y="580" as="sourcePoint"/>
                        <mxPoint x="230" y="530" as="targetPoint"/>
                        <Array as="points">
                            <mxPoint x="185" y="510"/>
                        </Array>
                    </mxGeometry>
                </mxCell>
                <mxCell id="24" value="idmからデータベースでのIDを取得" style="rounded=0;whiteSpace=wrap;html=1;fillColor=none;strokeColor=#3399FF;fontColor=#007FFF;" parent="1" vertex="1">
                    <mxGeometry x="305" y="600" width="130" height="50" as="geometry"/>
                </mxCell>
                <mxCell id="25" value="" style="endArrow=classic;html=1;exitX=0.5;exitY=1;exitDx=0;exitDy=0;fillColor=none;strokeColor=#3399FF;fontColor=#007FFF;" parent="1" source="24" target="20" edge="1">
                    <mxGeometry width="50" height="50" relative="1" as="geometry">
                        <mxPoint x="350" y="660" as="sourcePoint"/>
                        <mxPoint x="400" y="740" as="targetPoint"/>
                    </mxGeometry>
                </mxCell>
                <mxCell id="26" value="" style="endArrow=classic;html=1;exitX=0.5;exitY=1;exitDx=0;exitDy=0;entryX=0.65;entryY=1.029;entryDx=0;entryDy=0;entryPerimeter=0;fillColor=none;strokeColor=#3399FF;fontColor=#007FFF;" parent="1" source="14" target="4" edge="1">
                    <mxGeometry width="50" height="50" relative="1" as="geometry">
                        <mxPoint x="540" y="750" as="sourcePoint"/>
                        <mxPoint x="590" y="700" as="targetPoint"/>
                        <Array as="points">
                            <mxPoint x="510" y="730"/>
                            <mxPoint x="440" y="730"/>
                        </Array>
                    </mxGeometry>
                </mxCell>
                <mxCell id="27" value="" style="endArrow=classic;html=1;exitX=0.5;exitY=1;exitDx=0;exitDy=0;entryX=0.85;entryY=1;entryDx=0;entryDy=0;entryPerimeter=0;fillColor=none;strokeColor=#3399FF;fontColor=#007FFF;" parent="1" source="13" target="4" edge="1">
                    <mxGeometry width="50" height="50" relative="1" as="geometry">
                        <mxPoint x="620" y="820" as="sourcePoint"/>
                        <mxPoint x="670" y="770" as="targetPoint"/>
                        <Array as="points">
                            <mxPoint x="660" y="750"/>
                            <mxPoint x="460" y="750"/>
                        </Array>
                    </mxGeometry>
                </mxCell>
                <mxCell id="28" value="" style="endArrow=classic;html=1;exitX=0.5;exitY=1;exitDx=0;exitDy=0;entryX=0.45;entryY=1;entryDx=0;entryDy=0;entryPerimeter=0;fillColor=none;strokeColor=#3399FF;fontColor=#007FFF;" parent="1" source="20" target="4" edge="1">
                    <mxGeometry width="50" height="50" relative="1" as="geometry">
                        <mxPoint x="240" y="830" as="sourcePoint"/>
                        <mxPoint x="290" y="780" as="targetPoint"/>
                        <Array as="points">
                            <mxPoint x="370" y="730"/>
                            <mxPoint x="420" y="730"/>
                        </Array>
                    </mxGeometry>
                </mxCell>
                <mxCell id="29" value="" style="endArrow=classic;html=1;exitX=0.5;exitY=1;exitDx=0;exitDy=0;entryX=0.25;entryY=1;entryDx=0;entryDy=0;entryPerimeter=0;fillColor=none;strokeColor=#3399FF;fontColor=#007FFF;" parent="1" source="21" target="4" edge="1">
                    <mxGeometry width="50" height="50" relative="1" as="geometry">
                        <mxPoint x="210" y="780" as="sourcePoint"/>
                        <mxPoint x="260" y="730" as="targetPoint"/>
                        <Array as="points">
                            <mxPoint x="185" y="760"/>
                            <mxPoint x="400" y="760"/>
                        </Array>
                    </mxGeometry>
                </mxCell>
                <mxCell id="30" value="" style="endArrow=none;dashed=1;html=1;dashPattern=1 3;strokeWidth=2;entryX=0;entryY=0.5;entryDx=0;entryDy=0;exitX=0.075;exitY=1.092;exitDx=0;exitDy=0;exitPerimeter=0;fillColor=none;strokeColor=#3399FF;fontColor=#007FFF;" parent="1" source="4" target="10" edge="1">
                    <mxGeometry width="50" height="50" relative="1" as="geometry">
                        <mxPoint x="70" y="860" as="sourcePoint"/>
                        <mxPoint x="60" y="530" as="targetPoint"/>
                        <Array as="points">
                            <mxPoint x="383" y="770"/>
                            <mxPoint x="60" y="770"/>
                            <mxPoint x="60" y="323"/>
                        </Array>
                    </mxGeometry>
                </mxCell>
                <mxCell id="31" value="" style="endArrow=classic;html=1;exitX=0.5;exitY=1;exitDx=0;exitDy=0;exitPerimeter=0;entryX=0.5;entryY=0;entryDx=0;entryDy=0;fillColor=none;strokeColor=#3399FF;fontColor=#007FFF;" parent="1" source="3" target="6" edge="1">
                    <mxGeometry width="50" height="50" relative="1" as="geometry">
                        <mxPoint x="210" y="310" as="sourcePoint"/>
                        <mxPoint x="260" y="260" as="targetPoint"/>
                    </mxGeometry>
                </mxCell>
                <mxCell id="32" value="" style="endArrow=classic;html=1;exitX=0.5;exitY=1;exitDx=0;exitDy=0;entryX=0.5;entryY=0;entryDx=0;entryDy=0;fillColor=none;strokeColor=#3399FF;fontColor=#007FFF;" parent="1" source="6" target="7" edge="1">
                    <mxGeometry width="50" height="50" relative="1" as="geometry">
                        <mxPoint x="250" y="350" as="sourcePoint"/>
                        <mxPoint x="300" y="300" as="targetPoint"/>
                    </mxGeometry>
                </mxCell>
                <mxCell id="33" value="" style="endArrow=classic;html=1;entryX=0.5;entryY=0;entryDx=0;entryDy=0;fillColor=none;strokeColor=#3399FF;fontColor=#007FFF;" parent="1" target="8" edge="1">
                    <mxGeometry width="50" height="50" relative="1" as="geometry">
                        <mxPoint x="425" y="211" as="sourcePoint"/>
                        <mxPoint x="320" y="280" as="targetPoint"/>
                    </mxGeometry>
                </mxCell>
                <mxCell id="36" value="" style="endArrow=classic;html=1;exitX=0;exitY=0.5;exitDx=0;exitDy=0;entryX=0.5;entryY=0;entryDx=0;entryDy=0;fillColor=none;strokeColor=#3399FF;fontColor=#007FFF;" parent="1" source="8" target="10" edge="1">
                    <mxGeometry width="50" height="50" relative="1" as="geometry">
                        <mxPoint x="230" y="340" as="sourcePoint"/>
                        <mxPoint x="280" y="290" as="targetPoint"/>
                        <Array as="points">
                            <mxPoint x="285" y="280"/>
                        </Array>
                    </mxGeometry>
                </mxCell>
                <mxCell id="37" value="" style="endArrow=classic;html=1;exitX=0.5;exitY=1;exitDx=0;exitDy=0;entryX=0.5;entryY=0;entryDx=0;entryDy=0;fillColor=none;strokeColor=#3399FF;fontColor=#007FFF;" parent="1" source="8" target="9" edge="1">
                    <mxGeometry width="50" height="50" relative="1" as="geometry">
                        <mxPoint x="410" y="440" as="sourcePoint"/>
                        <mxPoint x="460" y="390" as="targetPoint"/>
                        <Array as="points">
                            <mxPoint x="425" y="340"/>
                            <mxPoint x="575" y="340"/>
                        </Array>
                    </mxGeometry>
                </mxCell>
                <mxCell id="40" value="交通系ICが読み取れなかったら" style="text;html=1;fillColor=none;align=center;verticalAlign=middle;whiteSpace=wrap;rounded=0;fontColor=#007FFF;" parent="1" vertex="1">
                    <mxGeometry x="50" y="300" width="170" height="20" as="geometry"/>
                </mxCell>
                <mxCell id="42" style="edgeStyle=orthogonalEdgeStyle;rounded=0;orthogonalLoop=1;jettySize=auto;html=1;entryX=0.5;entryY=0;entryDx=0;entryDy=0;entryPerimeter=0;fillColor=none;strokeColor=#3399FF;fontColor=#007FFF;" parent="1" source="41" target="3" edge="1">
                    <mxGeometry relative="1" as="geometry"/>
                </mxCell>
                <mxCell id="41" value="" style="rounded=1;whiteSpace=wrap;html=1;fillColor=none;strokeColor=#3399FF;fontColor=#007FFF;" parent="1" vertex="1">
                    <mxGeometry x="365" y="-30" width="120" height="30" as="geometry"/>
                </mxCell>
                <mxCell id="43" value="" style="rounded=1;whiteSpace=wrap;html=1;fillColor=none;strokeColor=#3399FF;fontColor=#007FFF;" parent="1" vertex="1">
                    <mxGeometry x="365" y="870" width="120" height="30" as="geometry"/>
                </mxCell>
                <mxCell id="45" value="YES" style="text;html=1;strokeColor=none;fillColor=none;align=center;verticalAlign=middle;whiteSpace=wrap;rounded=0;fontColor=#007FFF;fontSize=10;" parent="1" vertex="1">
                    <mxGeometry x="425" y="320" width="40" height="20" as="geometry"/>
                </mxCell>
                <mxCell id="46" value="YES" style="text;html=1;strokeColor=none;fillColor=none;align=center;verticalAlign=middle;whiteSpace=wrap;rounded=0;fontColor=#007FFF;fontSize=10;" parent="1" vertex="1">
                    <mxGeometry x="570" y="525" width="40" height="20" as="geometry"/>
                </mxCell>
                <mxCell id="47" value="YES" style="text;html=1;strokeColor=none;fillColor=none;align=center;verticalAlign=middle;whiteSpace=wrap;rounded=0;fontColor=#007FFF;fontSize=10;" parent="1" vertex="1">
                    <mxGeometry x="280" y="543" width="40" height="20" as="geometry"/>
                </mxCell>
                <mxCell id="48" value="NO" style="text;html=1;strokeColor=none;fillColor=none;align=center;verticalAlign=middle;whiteSpace=wrap;rounded=0;fontColor=#007FFF;fontSize=10;" parent="1" vertex="1">
                    <mxGeometry x="190" y="490" width="40" height="20" as="geometry"/>
                </mxCell>
                <mxCell id="49" value="NO" style="text;html=1;strokeColor=none;fillColor=none;align=center;verticalAlign=middle;whiteSpace=wrap;rounded=0;fontColor=#007FFF;fontSize=10;" parent="1" vertex="1">
                    <mxGeometry x="475" y="490" width="40" height="20" as="geometry"/>
                </mxCell>
                <mxCell id="52" style="edgeStyle=orthogonalEdgeStyle;rounded=0;orthogonalLoop=1;jettySize=auto;html=1;entryX=0.5;entryY=0;entryDx=0;entryDy=0;fillColor=none;strokeColor=#3399FF;fontColor=#007FFF;" edge="1" parent="1" source="50" target="19">
                    <mxGeometry relative="1" as="geometry"/>
                </mxCell>
                <mxCell id="50" value="idmを取り出す" style="rounded=0;whiteSpace=wrap;html=1;fillColor=none;strokeColor=#3399FF;fontColor=#007FFF;" vertex="1" parent="1">
                    <mxGeometry x="225" y="390" width="120" height="40" as="geometry"/>
                </mxCell>
            </root>
        </mxGraphModel>
    </diagram>
</mxfile>